<mxfile host="app.diagrams.net" modified="2024-03-17T06:42:45.497Z" agent="Mozilla/5.0 (Macintosh; Intel Mac OS X 10.15; rv:123.0) Gecko/20100101 Firefox/123.0" etag="RS0Ks_JZ4DkKkIhpPFlY" version="24.0.7" type="github">
  <diagram name="Page-1" id="xyDczvxcTS2VxDfqQqBg">
    <mxGraphModel dx="1242" dy="735" grid="1" gridSize="10" guides="1" tooltips="1" connect="1" arrows="1" fold="1" page="1" pageScale="1" pageWidth="850" pageHeight="1100" math="0" shadow="0">
      <root>
        <mxCell id="0" />
        <mxCell id="1" parent="0" />
        <mxCell id="Y0-UG9Aec5sWjt51knTC-1" value="Client" style="rounded=0;whiteSpace=wrap;html=1;" parent="1" vertex="1">
          <mxGeometry x="350" y="120" width="120" height="60" as="geometry" />
        </mxCell>
        <mxCell id="Y0-UG9Aec5sWjt51knTC-2" value="&lt;div&gt;Load Balancer&lt;/div&gt;&lt;div&gt;- Rate Limiting&lt;/div&gt;&lt;div&gt;- Authentication&lt;br&gt;&lt;/div&gt;" style="rounded=0;whiteSpace=wrap;html=1;" parent="1" vertex="1">
          <mxGeometry x="295" y="280" width="230" height="130" as="geometry" />
        </mxCell>
        <mxCell id="Y0-UG9Aec5sWjt51knTC-3" value="" style="endArrow=classic;html=1;rounded=0;entryX=0.5;entryY=0;entryDx=0;entryDy=0;" parent="1" target="Y0-UG9Aec5sWjt51knTC-2" edge="1">
          <mxGeometry width="50" height="50" relative="1" as="geometry">
            <mxPoint x="409.5" y="180" as="sourcePoint" />
            <mxPoint x="409.5" y="260" as="targetPoint" />
          </mxGeometry>
        </mxCell>
        <mxCell id="Y0-UG9Aec5sWjt51knTC-4" value="Call the GET REST API" style="text;html=1;align=center;verticalAlign=middle;whiteSpace=wrap;rounded=0;" parent="1" vertex="1">
          <mxGeometry x="425" y="220" width="175" height="30" as="geometry" />
        </mxCell>
        <mxCell id="Y0-UG9Aec5sWjt51knTC-5" value="" style="rounded=0;whiteSpace=wrap;html=1;" parent="1" vertex="1">
          <mxGeometry x="160" y="520" width="200" height="120" as="geometry" />
        </mxCell>
        <mxCell id="Y0-UG9Aec5sWjt51knTC-6" value="" style="rounded=0;whiteSpace=wrap;html=1;" parent="1" vertex="1">
          <mxGeometry x="180" y="540" width="50" height="50" as="geometry" />
        </mxCell>
        <mxCell id="Y0-UG9Aec5sWjt51knTC-7" value="" style="rounded=0;whiteSpace=wrap;html=1;" parent="1" vertex="1">
          <mxGeometry x="240" y="540" width="50" height="50" as="geometry" />
        </mxCell>
        <mxCell id="Y0-UG9Aec5sWjt51knTC-8" value="" style="rounded=0;whiteSpace=wrap;html=1;" parent="1" vertex="1">
          <mxGeometry x="470" y="520" width="200" height="120" as="geometry" />
        </mxCell>
        <mxCell id="Y0-UG9Aec5sWjt51knTC-9" value="" style="rounded=0;whiteSpace=wrap;html=1;" parent="1" vertex="1">
          <mxGeometry x="490" y="540" width="50" height="50" as="geometry" />
        </mxCell>
        <mxCell id="Y0-UG9Aec5sWjt51knTC-10" value="" style="rounded=0;whiteSpace=wrap;html=1;" parent="1" vertex="1">
          <mxGeometry x="550" y="540" width="50" height="50" as="geometry" />
        </mxCell>
        <mxCell id="Y0-UG9Aec5sWjt51knTC-11" value="&lt;font style=&quot;font-size: 30px;&quot;&gt;...&lt;/font&gt;" style="text;html=1;align=center;verticalAlign=middle;whiteSpace=wrap;rounded=0;" parent="1" vertex="1">
          <mxGeometry x="390" y="565" width="60" height="30" as="geometry" />
        </mxCell>
        <mxCell id="Y0-UG9Aec5sWjt51knTC-12" value="Data Center 1" style="text;html=1;align=center;verticalAlign=middle;whiteSpace=wrap;rounded=0;" parent="1" vertex="1">
          <mxGeometry x="210" y="650" width="100" height="30" as="geometry" />
        </mxCell>
        <mxCell id="Y0-UG9Aec5sWjt51knTC-13" value="Data Center n" style="text;html=1;align=center;verticalAlign=middle;whiteSpace=wrap;rounded=0;" parent="1" vertex="1">
          <mxGeometry x="530" y="650" width="90" height="30" as="geometry" />
        </mxCell>
        <mxCell id="Y0-UG9Aec5sWjt51knTC-14" value="" style="endArrow=classic;html=1;rounded=0;" parent="1" edge="1">
          <mxGeometry width="50" height="50" relative="1" as="geometry">
            <mxPoint x="600" y="565" as="sourcePoint" />
            <mxPoint x="660" y="750" as="targetPoint" />
            <Array as="points">
              <mxPoint x="720" y="640" />
            </Array>
          </mxGeometry>
        </mxCell>
        <mxCell id="Y0-UG9Aec5sWjt51knTC-15" value="Machine running ID generator service" style="text;html=1;align=center;verticalAlign=middle;whiteSpace=wrap;rounded=0;" parent="1" vertex="1">
          <mxGeometry x="440" y="740" width="210" height="30" as="geometry" />
        </mxCell>
        <mxCell id="Y0-UG9Aec5sWjt51knTC-16" value="" style="endArrow=classic;html=1;rounded=0;entryX=0.5;entryY=0;entryDx=0;entryDy=0;" parent="1" target="Y0-UG9Aec5sWjt51knTC-5" edge="1">
          <mxGeometry width="50" height="50" relative="1" as="geometry">
            <mxPoint x="410" y="410" as="sourcePoint" />
            <mxPoint x="320" y="530" as="targetPoint" />
          </mxGeometry>
        </mxCell>
        <mxCell id="Y0-UG9Aec5sWjt51knTC-17" value="" style="endArrow=classic;html=1;rounded=0;entryX=0.5;entryY=0;entryDx=0;entryDy=0;" parent="1" target="Y0-UG9Aec5sWjt51knTC-8" edge="1">
          <mxGeometry width="50" height="50" relative="1" as="geometry">
            <mxPoint x="410" y="410" as="sourcePoint" />
            <mxPoint x="270" y="530" as="targetPoint" />
          </mxGeometry>
        </mxCell>
      </root>
    </mxGraphModel>
  </diagram>
</mxfile>
